Coordinates
version=1
nRows=18
nColumns=63
inDegrees=yes

Units are S.I. units (second, meters, Newtons, ...)
If the header above contains a line with 'inDegrees', this indicates whether rotational values are in degrees (yes) or radians (no).

endheader
time	pelvis_tilt	pelvis_list	pelvis_rotation	pelvis_tx	pelvis_ty	pelvis_tz	hip_flexion_r	hip_adduction_r	hip_rotation_r	knee_angle_r	knee_angle_r_beta	ankle_angle_r	subtalar_angle_r	mtp_angle_r	hip_flexion_l	hip_adduction_l	hip_rotation_l	knee_angle_l	knee_angle_l_beta	ankle_angle_l	subtalar_angle_l	mtp_angle_l	L5_S1_Flex_Ext	L5_S1_Lat_Bending	L5_S1_axial_rotation	L4_L5_Flex_Ext	L4_L5_Lat_Bending	L4_L5_axial_rotation	L3_L4_Flex_Ext	L3_L4_Lat_Bending	L3_L4_axial_rotation	L2_L3_Flex_Ext	L2_L3_Lat_Bending	L2_L3_axial_rotation	L1_L2_Flex_Ext	L1_L2_Lat_Bending	L1_L2_axial_rotation	L1_T12_Flex_Ext	L1_T12_Lat_Bending	L1_T12_axial_rotation	Abs_r3	Abs_r2	Abs_r1	Abs_t1	Abs_t2	neck_flexion	neck_bending	neck_rotation	arm_flex_r	arm_add_r	arm_rot_r	elbow_flex_r	pro_sup_r	wrist_flex_r	wrist_dev_r	arm_flex_l	arm_add_l	arm_rot_l	elbow_flex_l	pro_sup_l	wrist_flex_l	wrist_dev_l
0.000000	-1.373547	-4.241986	86.434136	0.208656	1.033343	0.441395	1.895842	-1.779827	11.370971	2.411550	0.042089	29.194945	-6.671508	0.000000	3.077068	-1.391729	-8.310631	6.145736	0.107263	33.716587	11.593288	0.000000	-0.006293	-0.301598	1.024114	-0.011686	-0.401126	1.088122	-0.010338	-0.733306	1.088122	-0.007192	-0.733306	0.896100	-0.005843	-0.615019	0.832093	-0.003596	-0.467176	0.768086	-0.044947	-3.411739	5.695817	0.000000	0.000000	14.543731	3.569302	-4.829211	13.015637	-2.516047	54.463561	35.457165	26.540824	-2.328832	6.593018	20.828079	-5.537719	74.747056	36.966680	40.232526	-9.830181	0.766822
0.017857	-1.449365	-4.324260	86.085487	0.208728	1.033136	0.440748	2.124150	-1.856070	11.771477	2.660112	0.046428	29.307284	-6.291686	0.000000	3.024707	-1.264748	-7.770199	6.030308	0.105249	33.642561	10.081654	0.000000	-0.019337	-0.293426	1.146862	-0.035911	-0.390256	1.218541	-0.031769	-0.713435	1.218541	-0.022101	-0.713435	1.003504	-0.017957	-0.598353	0.931825	-0.011049	-0.454516	0.860146	-0.138124	-3.319289	6.378502	0.000000	0.000000	15.251326	3.777528	-3.516988	11.469371	-2.671508	50.375963	36.516302	34.129649	-3.323150	6.068972	21.044936	-4.991553	77.362379	37.232225	34.991545	-11.718786	-0.611810
0.035714	-1.480665	-4.451025	85.907741	0.208602	1.032954	0.440378	2.362292	-1.894898	12.064514	2.821728	0.049248	29.353837	-6.102199	0.000000	3.095817	-1.195936	-7.310470	6.015643	0.104993	33.563507	8.936457	0.000000	-0.028200	-0.284022	1.245669	-0.052370	-0.377750	1.323524	-0.046330	-0.690572	1.323524	-0.032230	-0.690572	1.089961	-0.026187	-0.579178	1.012106	-0.016114	-0.439950	0.934252	-0.201431	-3.212916	6.928039	0.000000	0.000000	15.972845	3.928390	-2.548556	10.084601	-2.860933	46.863921	37.680540	40.951232	-3.739423	5.563341	21.345379	-4.624624	79.558218	37.571493	31.509799	-12.927360	-2.055611
0.053571	-1.474106	-4.613318	85.874945	0.208315	1.032800	0.440247	2.605900	-1.901691	12.260715	2.907935	0.050753	29.343929	-6.074848	0.000000	3.269385	-1.177120	-6.927350	6.086203	0.106224	33.476928	8.116096	0.000000	-0.033441	-0.273756	1.322789	-0.062103	-0.364095	1.405463	-0.054940	-0.665610	1.405463	-0.038220	-0.665610	1.157440	-0.031053	-0.558243	1.074766	-0.019108	-0.424048	0.992092	-0.238865	-3.096781	7.356956	0.000000	0.000000	16.696204	4.029663	-1.884173	8.842732	-3.085373	43.855816	38.952610	47.055741	-3.658768	5.088583	21.693019	-4.430354	81.310648	38.007922	29.629998	-13.535872	-3.517406
0.071429	-1.436346	-4.802173	85.961146	0.207903	1.032681	0.440321	2.850606	-1.881829	12.370711	2.930269	0.051143	29.286883	-6.181433	0.000000	3.524395	-1.200121	-6.616741	6.226451	0.108672	33.380325	7.578972	0.000000	-0.035619	-0.262994	1.380473	-0.066149	-0.349783	1.466753	-0.058519	-0.639445	1.466753	-0.040709	-0.639445	1.207914	-0.033076	-0.536298	1.121634	-0.020353	-0.407378	1.035355	-0.254426	-2.975046	7.677778	0.000000	0.000000	17.409321	4.089122	-1.484097	7.725170	-3.345880	41.280025	40.335243	52.493342	-3.162301	4.657155	22.051464	-4.402164	82.595747	38.564946	29.194857	-13.624289	-4.950017
0.089286	-1.374043	-5.008628	86.140392	0.207400	1.032600	0.440562	3.092040	-1.840692	12.405137	2.900268	0.050619	29.192022	-6.393757	0.000000	3.839831	-1.256766	-6.374549	6.420851	0.112065	33.271200	7.283485	0.000000	-0.035295	-0.252106	1.420974	-0.065547	-0.335301	1.509785	-0.057987	-0.612970	1.509785	-0.040339	-0.612970	1.243352	-0.032775	-0.514094	1.154541	-0.020168	-0.390512	1.065731	-0.252111	-2.851872	7.903031	0.000000	0.000000	18.100114	4.114544	-1.308585	6.713320	-3.643504	39.064927	41.831169	57.314204	-2.331138	4.281512	22.384322	-4.533475	83.389590	39.266003	30.047088	-13.272582	-6.306270
0.107143	-1.293856	-5.223719	86.386729	0.206843	1.032563	0.440936	3.325833	-1.783661	12.374624	2.829469	0.049384	29.068670	-6.683618	0.000000	4.194679	-1.338877	-6.196677	6.653865	0.116132	33.147057	7.188037	0.000000	-0.033028	-0.241458	1.446544	-0.061337	-0.321139	1.536953	-0.054262	-0.587080	1.536953	-0.037748	-0.587080	1.265726	-0.030670	-0.492381	1.175317	-0.018872	-0.374018	1.084908	-0.235919	-2.731419	8.045243	0.000000	0.000000	18.756499	4.113702	-1.317894	5.788587	-3.979299	37.138901	43.443119	61.568494	-1.246395	3.974114	22.655203	-4.817711	83.668254	40.134529	32.029402	-12.560718	-7.538989
0.125000	-1.202443	-5.438481	86.674205	0.206268	1.032573	0.441405	3.547617	-1.716115	12.289806	2.729410	0.047637	28.926150	-7.022819	0.000000	4.567922	-1.438280	-6.079030	6.909956	0.120601	33.005396	7.251027	0.000000	-0.029378	-0.231418	1.459435	-0.054559	-0.307786	1.550649	-0.048266	-0.562670	1.550649	-0.033577	-0.562670	1.277005	-0.027281	-0.471908	1.185791	-0.016787	-0.358467	1.094576	-0.209847	-2.617848	8.116939	0.000000	0.000000	19.366395	4.094373	-1.472283	4.932376	-4.354316	35.430325	45.173823	65.306380	0.010811	3.747416	22.827714	-5.248290	83.407814	41.193960	34.984513	-11.568668	-8.600997
0.142857	-1.106464	-5.643951	86.976866	0.205710	1.032635	0.441935	3.753023	-1.643435	12.161316	2.611628	0.045582	28.773785	-7.383160	0.000000	4.938546	-1.546797	-6.017512	7.173586	0.125203	32.843721	7.430856	0.000000	-0.024905	-0.222355	1.461899	-0.046251	-0.295732	1.553268	-0.040917	-0.540633	1.553268	-0.028464	-0.540633	1.279162	-0.023127	-0.453426	1.187793	-0.014231	-0.344428	1.096424	-0.177894	-2.515322	8.130645	0.000000	0.000000	19.917718	4.064333	-1.732008	4.126093	-4.769606	33.867578	47.026011	68.578030	1.359364	3.613875	22.865466	-5.818636	82.584347	42.467733	38.755134	-10.376400	-9.445119
0.160714	-1.012576	-5.831165	87.268759	0.205205	1.032755	0.442488	3.937681	-1.571001	11.999786	2.487659	0.043418	28.620900	-7.736442	0.000000	5.285535	-1.656254	-6.008027	7.429219	0.129664	32.659533	7.685924	0.000000	-0.020168	-0.214635	1.456189	-0.037454	-0.285465	1.547201	-0.033134	-0.521865	1.547201	-0.023050	-0.521865	1.274165	-0.018728	-0.437685	1.183154	-0.011524	-0.332470	1.092142	-0.144059	-2.427999	8.098887	0.000000	0.000000	20.398387	4.031356	-2.057328	3.351143	-5.226222	32.379037	49.002415	71.433612	2.718148	3.585950	22.732066	-6.522170	81.173929	43.979283	43.183976	-9.063882	-10.024179
0.178571	-0.927437	-5.991160	87.523932	0.204789	1.032937	0.443029	4.097223	-1.504193	11.815848	2.369042	0.041348	28.476817	-8.054466	0.000000	5.587874	-1.758474	-6.046479	7.661318	0.133715	32.450334	7.974631	0.000000	-0.015727	-0.208628	1.444557	-0.029207	-0.277475	1.534842	-0.025838	-0.507258	1.534842	-0.017975	-0.507258	1.263987	-0.014604	-0.425434	1.173703	-0.008987	-0.323165	1.083418	-0.112339	-2.360042	8.034192	0.000000	0.000000	20.796318	4.003218	-2.408501	2.588931	-5.725215	30.893083	51.105765	73.923292	4.006047	3.676096	22.391124	-7.352313	79.152635	45.752048	48.113753	-7.711085	-10.291001
0.196429	-0.902286	-6.071196	87.635217	0.204673	1.033211	0.443482	4.200787	-1.485038	11.640197	2.293872	0.040036	28.380354	-8.226464	0.000000	5.746436	-1.795863	-6.051844	7.780351	0.135793	32.205587	8.094085	0.000000	-0.015738	-0.211942	1.451930	-0.029228	-0.281882	1.542675	-0.025857	-0.515315	1.542675	-0.017987	-0.515315	1.270438	-0.014615	-0.432191	1.179693	-0.008993	-0.328298	1.088947	-0.112418	-2.397527	8.075197	0.000000	0.000000	21.022662	4.022620	-2.860641	1.689703	-6.225460	28.693530	53.380628	76.205756	4.605835	4.219189	21.667896	-8.387657	76.066251	47.924648	53.815285	-6.780814	-9.858047
0.214286	-0.886692	-6.070059	87.637842	0.204727	1.033638	0.443855	4.236997	-1.471050	11.479421	2.258104	0.039411	28.298597	-8.326073	0.000000	5.770699	-1.824391	-6.152782	7.849324	0.136997	31.899720	8.182718	0.000000	-0.019437	-0.215172	1.447604	-0.036097	-0.286179	1.538080	-0.031934	-0.523170	1.538080	-0.022215	-0.523170	1.266654	-0.018050	-0.438780	1.176179	-0.011107	-0.333302	1.085703	-0.138840	-2.434074	8.051142	0.000000	0.000000	21.061742	4.098445	-3.113240	0.827941	-6.809989	26.646446	55.720375	78.285620	5.004868	4.763170	20.648156	-9.609569	72.527955	50.482780	59.196844	-6.010687	-8.905670
0.232143	-0.881945	-6.007697	87.515487	0.204955	1.034159	0.444103	4.227312	-1.462524	11.342478	2.269049	0.039602	28.248081	-8.317118	0.000000	5.677630	-1.843801	-6.425246	7.866168	0.137291	31.561080	8.300114	0.000000	-0.024873	-0.217664	1.432049	-0.046191	-0.289493	1.521553	-0.040864	-0.529229	1.521553	-0.028427	-0.529229	1.253043	-0.023097	-0.443861	1.163540	-0.014212	-0.337162	1.074037	-0.177664	-2.462262	7.964630	0.000000	0.000000	20.952187	4.173586	-3.183615	-0.048380	-7.492352	24.659725	58.206772	79.610911	5.188945	5.406652	19.207116	-10.949566	68.119019	53.433086	64.693500	-5.489446	-7.331638
0.250000	-0.902067	-5.888133	87.244771	0.205392	1.034745	0.444167	4.178886	-1.471853	11.297422	2.335380	0.040760	28.225870	-8.243062	0.000000	5.452785	-1.825618	-6.644268	7.794331	0.136037	31.165575	8.152129	0.000000	-0.032093	-0.219897	1.417307	-0.059600	-0.292463	1.505889	-0.052726	-0.534658	1.505889	-0.036679	-0.534658	1.240144	-0.029802	-0.448414	1.151562	-0.018338	-0.340620	1.062980	-0.229239	-2.487519	7.882636	0.000000	0.000000	20.721157	4.286392	-2.977099	-1.003026	-8.233612	22.342481	60.826183	82.027070	5.104882	6.070840	17.474909	-12.301365	63.335477	56.740341	69.306712	-5.193672	-5.399592
0.267857	-0.960007	-5.740992	86.817986	0.206036	1.035332	0.444029	4.138191	-1.515784	11.066935	2.481171	0.043305	28.333387	-7.670818	0.000000	5.134026	-1.762408	-6.893278	7.639155	0.133328	30.750027	7.853982	0.000000	-0.038592	-0.222949	1.397171	-0.071668	-0.296522	1.484495	-0.063402	-0.542079	1.484495	-0.044106	-0.542079	1.222525	-0.035836	-0.454638	1.135202	-0.022051	-0.345348	1.047879	-0.275655	-2.522046	7.770648	0.000000	0.000000	20.449208	4.431039	-2.476968	-1.980662	-9.072338	19.954841	63.630723	83.926929	4.744421	6.845452	15.334641	-13.613394	57.726783	60.369499	73.552482	-4.983709	-3.030405
0.285714	-1.035902	-5.570215	86.300084	0.206823	1.035910	0.443585	4.070346	-1.573930	10.813130	2.668353	0.046572	28.513875	-6.937156	0.000000	4.730844	-1.673996	-7.154592	7.418778	0.129482	30.372902	7.452894	0.000000	-0.045098	-0.224306	1.384164	-0.083752	-0.298327	1.470674	-0.074092	-0.545378	1.470674	-0.051543	-0.545378	1.211143	-0.041878	-0.457405	1.124633	-0.025769	-0.347450	1.038123	-0.322132	-2.537396	7.698303	0.000000	0.000000	20.133128	4.529260	-1.757937	-3.115301	-9.941070	17.101561	66.715642	85.926491	4.041846	7.787998	12.874965	-14.906386	51.604918	64.234121	77.296985	-5.132077	-0.379017
0.303571	-1.168188	-5.397018	85.639504	0.207841	1.036449	0.442863	4.018855	-1.676139	10.702764	2.905156	0.050705	28.723828	-6.147522	0.000000	4.266729	-1.523209	-7.488557	7.116723	0.124210	30.015467	6.961004	0.000000	-0.049087	-0.229642	1.375826	-0.091160	-0.305424	1.461815	-0.080645	-0.558352	1.461815	-0.056102	-0.558352	1.203848	-0.045582	-0.468286	1.117859	-0.028048	-0.355716	1.031870	-0.350624	-2.597757	7.651932	0.000000	0.000000	19.836393	4.634844	-0.836276	-4.339983	-10.847896	13.832557	69.991836	87.933463	3.162617	8.888971	9.992992	-16.124668	44.691988	68.295587	80.868721	-5.421621	2.427307
